<svg width="1200" height="760" viewBox="0 0 1200 760" fill="none" xmlns="http://www.w3.org/2000/svg">
  <rect width="1200" height="760" rx="44" fill="#FCFAF6"/>
  <rect x="34" y="30" width="1132" height="700" rx="34" fill="#FFFDF9" stroke="#D9D0C1"/>
  <rect x="72" y="78" width="1056" height="72" rx="22" fill="#F5EFE3"/>
  <rect x="96" y="98" width="210" height="32" rx="12" fill="#EADDBF"/>
  <rect x="874" y="96" width="112" height="36" rx="18" fill="#EEE6D4"/>
  <rect x="1000" y="96" width="92" height="36" rx="18" fill="#12100D"/>
  <rect x="90" y="190" width="260" height="472" rx="26" fill="#FAF5EC" stroke="#E2D9CB"/>
  <rect x="388" y="190" width="648" height="152" rx="26" fill="#FFF" stroke="#E2D9CB"/>
  <rect x="388" y="362" width="310" height="300" rx="26" fill="#FFF" stroke="#E2D9CB"/>
  <rect x="726" y="362" width="310" height="300" rx="26" fill="#FFF" stroke="#E2D9CB"/>
  <rect x="118" y="228" width="140" height="16" rx="8" fill="#C9AC85"/>
  <rect x="118" y="264" width="180" height="14" rx="7" fill="#C9BEA9"/>
  <rect x="118" y="318" width="204" height="56" rx="18" fill="#FFF" stroke="#E2D9CB"/>
  <circle cx="146" cy="346" r="8" fill="#6FB28D"/>
  <rect x="164" y="337" width="118" height="14" rx="7" fill="#3C3328"/>
  <rect x="164" y="357" width="88" height="10" rx="5" fill="#9E9282"/>
  <rect x="118" y="392" width="204" height="56" rx="18" fill="#FFF" stroke="#E2D9CB"/>
  <circle cx="146" cy="420" r="8" fill="#D2B574"/>
  <rect x="164" y="411" width="126" height="14" rx="7" fill="#3C3328"/>
  <rect x="164" y="431" width="74" height="10" rx="5" fill="#9E9282"/>
  <rect x="118" y="466" width="204" height="56" rx="18" fill="#FFF" stroke="#E2D9CB"/>
  <circle cx="146" cy="494" r="8" fill="#8FA8C5"/>
  <rect x="164" y="485" width="146" height="14" rx="7" fill="#3C3328"/>
  <rect x="164" y="505" width="82" height="10" rx="5" fill="#9E9282"/>
  <rect x="118" y="566" width="112" height="32" rx="16" fill="#F2E7CF"/>
  <rect x="256" y="566" width="44" height="32" rx="16" fill="#FFF" stroke="#E2D9CB"/>
  <rect x="420" y="220" width="220" height="20" rx="10" fill="#2A241D"/>
  <rect x="420" y="254" width="520" height="12" rx="6" fill="#B5A997"/>
  <rect x="420" y="292" width="152" height="28" rx="14" fill="#EFE5D1"/>
  <rect x="586" y="292" width="164" height="28" rx="14" fill="#E3F1E8"/>
  <rect x="764" y="292" width="194" height="28" rx="14" fill="#E8EEF6"/>
  <rect x="418" y="392" width="110" height="14" rx="7" fill="#B5A997"/>
  <rect x="418" y="430" width="244" height="18" rx="9" fill="#2A241D"/>
  <rect x="418" y="464" width="164" height="12" rx="6" fill="#B5A997"/>
  <rect x="418" y="514" width="250" height="112" rx="24" fill="#F8F2E6"/>
  <path d="M448 588C486 520 552 484 634 474" stroke="#C9AC85" stroke-width="18" stroke-linecap="round"/>
  <rect x="756" y="392" width="110" height="14" rx="7" fill="#B5A997"/>
  <rect x="756" y="430" width="180" height="18" rx="9" fill="#2A241D"/>
  <rect x="756" y="464" width="126" height="12" rx="6" fill="#B5A997"/>
  <rect x="756" y="512" width="248" height="52" rx="20" fill="#FFF7E8" stroke="#E7D6AD"/>
  <rect x="756" y="584" width="248" height="52" rx="20" fill="#EEF5F0" stroke="#C9E0D0"/>
</svg>
