<svg width="1000" height="720" viewBox="0 0 1000 720" fill="none" xmlns="http://www.w3.org/2000/svg">
  <rect width="1000" height="720" rx="40" fill="#FCFAF6"/>
  <rect x="34" y="34" width="932" height="652" rx="30" fill="#FFFDF9" stroke="#D9D0C1"/>
  <rect x="74" y="76" width="262" height="564" rx="24" fill="#F7F1E5"/>
  <rect x="370" y="76" width="556" height="150" rx="24" fill="#FFF" stroke="#E2D9CB"/>
  <rect x="370" y="248" width="170" height="170" rx="24" fill="#FFF" stroke="#E2D9CB"/>
  <rect x="562" y="248" width="170" height="170" rx="24" fill="#FFF" stroke="#E2D9CB"/>
  <rect x="754" y="248" width="172" height="170" rx="24" fill="#FFF" stroke="#E2D9CB"/>
  <rect x="370" y="442" width="556" height="164" rx="24" fill="#FDF8EE" stroke="#E7D8B3"/>
  <rect x="102" y="118" width="126" height="18" rx="9" fill="#C9AC85"/>
  <rect x="102" y="160" width="186" height="18" rx="9" fill="#2A241D"/>
  <rect x="102" y="194" width="162" height="12" rx="6" fill="#9E9282"/>
  <rect x="102" y="260" width="208" height="72" rx="22" fill="#FFF" stroke="#E2D9CB"/>
  <rect x="102" y="354" width="208" height="72" rx="22" fill="#FFF" stroke="#E2D9CB"/>
  <rect x="102" y="448" width="208" height="72" rx="22" fill="#FFF" stroke="#E2D9CB"/>
  <rect x="102" y="542" width="144" height="34" rx="17" fill="#12100D"/>
  <rect x="398" y="112" width="172" height="18" rx="9" fill="#2A241D"/>
  <rect x="398" y="146" width="330" height="12" rx="6" fill="#B5A997"/>
  <rect x="398" y="178" width="138" height="24" rx="12" fill="#F1E6D1"/>
  <rect x="398" y="278" width="76" height="14" rx="7" fill="#B5A997"/>
  <rect x="398" y="314" width="80" height="48" rx="16" fill="#F5EBD5"/>
  <rect x="590" y="278" width="76" height="14" rx="7" fill="#B5A997"/>
  <rect x="590" y="314" width="80" height="48" rx="16" fill="#E7F2EA"/>
  <rect x="782" y="278" width="76" height="14" rx="7" fill="#B5A997"/>
  <rect x="782" y="314" width="80" height="48" rx="16" fill="#EEF1F8"/>
  <rect x="402" y="476" width="144" height="18" rx="9" fill="#2A241D"/>
  <rect x="402" y="514" width="466" height="12" rx="6" fill="#B5A997"/>
  <rect x="402" y="548" width="400" height="12" rx="6" fill="#B5A997"/>
  <path d="M728 612C770 530 836 490 902 474" stroke="#C9AC85" stroke-width="18" stroke-linecap="round"/>
</svg>
