<svg xmlns="http://www.w3.org/2000/svg" xmlns:xlink="http://www.w3.org/1999/xlink" width="2000" zoomAndPan="magnify" viewBox="0 0 1500 1499.999933" height="2000" preserveAspectRatio="xMidYMid meet" version="1.0"><defs><filter x="0%" y="0%" width="100%" height="100%" id="d994c88e2a"><feColorMatrix values="0 0 0 0 1 0 0 0 0 1 0 0 0 0 1 0 0 0 1 0" color-interpolation-filters="sRGB"/></filter><g/><mask id="3dcee69b4d"><g filter="url(#d994c88e2a)"><rect x="-150" width="1800" fill="#000000" y="-149.999993" height="1799.99992" fill-opacity="0.5"/></g></mask><clipPath id="48ef44a61a"><path d="M 0.796875 0.585938 L 1246 0.585938 L 1246 1150.335938 L 0.796875 1150.335938 Z M 0.796875 0.585938 " clip-rule="nonzero"/></clipPath><clipPath id="3695101342"><rect x="0" width="1247" y="0" height="1151"/></clipPath></defs><rect x="-150" width="1800" fill="#ffffff" y="-149.999993" height="1799.99992" fill-opacity="1"/><rect x="-150" width="1800" fill="#ffffff" y="-149.999993" height="1799.99992" fill-opacity="1"/><g mask="url(#3dcee69b4d)"><g transform="matrix(1, 0, 0, 1, 130, 167)"><g clip-path="url(#3695101342)"><g clip-path="url(#48ef44a61a)"><path fill="#fde9a4" d="M 0.75 1150.582031 C 0.75 1150.582031 1.367188 587.691406 504 446.53125 C 1006.632812 305.371094 1058.339844 191.777344 1180.476562 0.648438 C 1180.476562 0.648438 1467.996094 693.265625 831.257812 819.28125 C 242.0625 935.898438 0.75 1150.582031 0.75 1150.582031 Z M 0.75 1150.582031 " fill-opacity="1" fill-rule="nonzero"/></g></g></g></g><g fill="#000000" fill-opacity="1"><g transform="translate(180.917009, 806.624911)"><g><path d="M 9.546875 0 L 9.546875 -53.515625 L 11.234375 -53.515625 L 11.234375 -49.203125 C 11.234375 -43.222656 12.726562 -37.332031 15.71875 -31.53125 C 18.707031 -25.726562 22.757812 -20.519531 27.875 -15.90625 C 32.988281 -11.289062 38.757812 -7.609375 45.1875 -4.859375 C 51.613281 -2.117188 58.253906 -0.75 65.109375 -0.75 C 74.210938 -0.75 81.476562 -1.929688 86.90625 -4.296875 C 92.332031 -6.671875 96.320312 -9.851562 98.875 -13.84375 C 101.4375 -17.832031 102.78125 -22.132812 102.90625 -26.75 C 103.03125 -31 101.78125 -34.898438 99.15625 -38.453125 C 96.539062 -42.003906 93.019531 -45.367188 88.59375 -48.546875 C 84.164062 -51.734375 79.300781 -54.789062 74 -57.71875 C 68.695312 -60.65625 63.457031 -63.585938 58.28125 -66.515625 C 53.101562 -69.453125 48.457031 -72.414062 44.34375 -75.40625 C 34.988281 -82.394531 27.753906 -88.753906 22.640625 -94.484375 C 17.523438 -100.222656 14.5 -105.960938 13.5625 -111.703125 C 12.625 -117.441406 13.71875 -123.867188 16.84375 -130.984375 C 19.707031 -137.460938 23.851562 -143.070312 29.28125 -147.8125 C 34.707031 -152.550781 40.910156 -156.195312 47.890625 -158.75 C 54.878906 -161.3125 62.117188 -162.59375 69.609375 -162.59375 C 72.972656 -162.59375 76.273438 -162.3125 79.515625 -161.75 C 82.765625 -161.195312 85.820312 -160.234375 88.6875 -158.859375 C 90.3125 -158.109375 92.304688 -157.234375 94.671875 -156.234375 C 97.046875 -155.234375 99.414062 -154.453125 101.78125 -153.890625 C 104.15625 -153.335938 106.179688 -153.210938 107.859375 -153.515625 C 109.546875 -153.828125 110.453125 -154.859375 110.578125 -156.609375 L 110.578125 -157.359375 L 112.265625 -157.359375 L 112.265625 -113.015625 L 110.578125 -113.015625 C 110.578125 -113.015625 110.484375 -114.101562 110.296875 -116.28125 C 110.109375 -118.46875 109.734375 -121.242188 109.171875 -124.609375 C 108.617188 -127.984375 107.6875 -131.601562 106.375 -135.46875 C 105.0625 -139.332031 103.3125 -143.007812 101.125 -146.5 C 98.945312 -150 96.175781 -152.804688 92.8125 -154.921875 C 89.5625 -156.796875 85.972656 -158.265625 82.046875 -159.328125 C 78.117188 -160.390625 73.972656 -160.921875 69.609375 -160.921875 C 62.367188 -160.921875 56.628906 -159.828125 52.390625 -157.640625 C 48.148438 -155.453125 45.15625 -152.488281 43.40625 -148.75 C 41.664062 -145.007812 40.796875 -140.769531 40.796875 -136.03125 C 40.796875 -129.664062 42.976562 -124.019531 47.34375 -119.09375 C 51.707031 -114.164062 58.378906 -108.957031 67.359375 -103.46875 C 75.085938 -98.726562 82.382812 -94.550781 89.25 -90.9375 C 96.113281 -87.320312 102.164062 -83.578125 107.40625 -79.703125 C 112.644531 -75.835938 116.789062 -71.222656 119.84375 -65.859375 C 122.894531 -60.492188 124.421875 -53.695312 124.421875 -45.46875 C 124.421875 -40.101562 123.171875 -34.394531 120.671875 -28.34375 C 118.179688 -22.289062 115.066406 -17.394531 111.328125 -13.65625 C 107.335938 -9.664062 102.410156 -6.515625 96.546875 -4.203125 C 90.679688 -1.898438 84.347656 -0.40625 77.546875 0.28125 C 70.753906 0.96875 63.957031 0.90625 57.15625 0.09375 C 50.363281 -0.71875 43.972656 -2.242188 37.984375 -4.484375 C 31.617188 -6.984375 26.628906 -8.546875 23.015625 -9.171875 C 19.398438 -9.796875 16.75 -9.765625 15.0625 -9.078125 C 13.375 -8.390625 12.3125 -7.265625 11.875 -5.703125 C 11.445312 -4.148438 11.234375 -2.3125 11.234375 -0.1875 L 11.234375 0 Z M 9.546875 0 "/></g></g></g><g fill="#000000" fill-opacity="1"><g transform="translate(310.952605, 806.624911)"><g><path d="M 96.171875 1.3125 C 88.316406 1.3125 80.519531 -0.0234375 72.78125 -2.703125 C 65.050781 -5.390625 58.003906 -9.164062 51.640625 -14.03125 C 45.273438 -18.894531 40.191406 -24.601562 36.390625 -31.15625 C 32.585938 -37.707031 30.6875 -44.785156 30.6875 -52.390625 L 30.6875 -139.765625 C 30.6875 -146.003906 28.8125 -150.867188 25.0625 -154.359375 C 21.320312 -157.859375 16.085938 -159.609375 9.359375 -159.609375 L 9.359375 -161.28125 L 90 -161.28125 L 90 -159.609375 C 83.132812 -159.609375 77.894531 -157.890625 74.28125 -154.453125 C 70.664062 -151.023438 68.859375 -146.566406 68.859375 -141.078125 L 68.859375 -66.609375 C 68.859375 -61.242188 69.140625 -55.566406 69.703125 -49.578125 C 70.265625 -43.597656 71.226562 -37.738281 72.59375 -32 C 73.96875 -26.257812 75.960938 -21.050781 78.578125 -16.375 C 81.203125 -11.695312 84.539062 -7.953125 88.59375 -5.140625 C 92.644531 -2.335938 97.601562 -0.9375 103.46875 -0.9375 C 107.082031 -0.9375 111.195312 -1.460938 115.8125 -2.515625 C 120.4375 -3.578125 125.117188 -5.296875 129.859375 -7.671875 C 134.597656 -10.046875 138.992188 -13.195312 143.046875 -17.125 C 147.097656 -21.050781 150.335938 -25.789062 152.765625 -31.34375 C 155.203125 -36.894531 156.421875 -43.472656 156.421875 -51.078125 L 156.421875 -140.703125 C 156.421875 -146.566406 154.550781 -151.179688 150.8125 -154.546875 C 147.070312 -157.921875 141.832031 -159.609375 135.09375 -159.609375 L 135.09375 -161.28125 L 179.25 -161.28125 L 179.25 -159.609375 C 172.757812 -159.609375 167.613281 -157.921875 163.8125 -154.546875 C 160.007812 -151.179688 158.109375 -146.566406 158.109375 -140.703125 L 158.109375 -51.078125 C 158.109375 -39.484375 155.300781 -29.816406 149.6875 -22.078125 C 144.070312 -14.347656 136.554688 -8.515625 127.140625 -4.578125 C 117.722656 -0.648438 107.398438 1.3125 96.171875 1.3125 Z M 96.171875 1.3125 "/></g></g></g><g fill="#000000" fill-opacity="1"><g transform="translate(490.195502, 806.624911)"><g><path d="M 35.171875 -134.15625 L 32.1875 -137.34375 L 32.1875 -20.578125 C 32.3125 -16.335938 33.210938 -12.9375 34.890625 -10.375 C 36.578125 -7.820312 38.601562 -5.953125 40.96875 -4.765625 C 43.34375 -3.585938 45.585938 -2.78125 47.703125 -2.34375 C 49.828125 -1.90625 51.453125 -1.6875 52.578125 -1.6875 L 53.515625 -1.6875 L 53.515625 0 L 9.359375 0 L 9.359375 -1.6875 L 10.296875 -1.6875 C 11.285156 -1.6875 12.875 -1.90625 15.0625 -2.34375 C 17.25 -2.78125 19.492188 -3.585938 21.796875 -4.765625 C 24.109375 -5.953125 26.101562 -7.820312 27.78125 -10.375 C 29.46875 -12.9375 30.375 -16.335938 30.5 -20.578125 L 30.5 -136.78125 C 30.375 -144.757812 28.46875 -150.523438 24.78125 -154.078125 C 21.101562 -157.640625 15.960938 -159.421875 9.359375 -159.421875 L 9.359375 -161.28125 L 61.9375 -161.28125 L 153.4375 -57.625 L 153.4375 -140.515625 C 153.3125 -145.503906 152.15625 -149.304688 149.96875 -151.921875 C 147.78125 -154.546875 145.316406 -156.390625 142.578125 -157.453125 C 139.835938 -158.515625 137.40625 -159.140625 135.28125 -159.328125 C 133.15625 -159.515625 132.09375 -159.609375 132.09375 -159.609375 L 132.09375 -161.28125 L 176.4375 -161.28125 L 176.4375 -159.421875 C 176.4375 -159.421875 175.375 -159.359375 173.25 -159.234375 C 171.132812 -159.109375 168.703125 -158.515625 165.953125 -157.453125 C 163.210938 -156.390625 160.75 -154.546875 158.5625 -151.921875 C 156.382812 -149.304688 155.234375 -145.503906 155.109375 -140.515625 L 155.109375 0 L 153.25 0 Z M 35.171875 -134.15625 "/></g></g></g><g fill="#000000" fill-opacity="1"><g transform="translate(670.374084, 806.624911)"><g><path d="M 9.359375 -1.6875 C 16.210938 -1.6875 21.601562 -3.460938 25.53125 -7.015625 C 29.46875 -10.566406 31.4375 -15.398438 31.4375 -21.515625 L 31.4375 -139.765625 C 31.4375 -146.003906 29.46875 -150.867188 25.53125 -154.359375 C 21.601562 -157.859375 16.210938 -159.609375 9.359375 -159.609375 L 9.359375 -161.28125 L 136.40625 -161.28125 L 142.765625 -119.75 L 141.265625 -119 L 140.703125 -122.375 C 140.328125 -124.238281 139.546875 -126.726562 138.359375 -129.84375 C 137.179688 -132.96875 135.34375 -136.210938 132.84375 -139.578125 C 130.351562 -142.953125 127.015625 -146.164062 122.828125 -149.21875 C 118.648438 -152.269531 113.378906 -154.765625 107.015625 -156.703125 C 100.660156 -158.640625 92.929688 -159.609375 83.828125 -159.609375 L 70.359375 -159.609375 L 70.171875 -85.515625 L 98.234375 -85.515625 C 102.597656 -85.640625 106.023438 -86.507812 108.515625 -88.125 C 111.015625 -89.75 112.890625 -91.742188 114.140625 -94.109375 C 115.390625 -96.484375 116.195312 -98.726562 116.5625 -100.84375 C 116.9375 -102.96875 117.125 -104.59375 117.125 -105.71875 L 117.125 -106.65625 L 118.8125 -106.65625 L 118.8125 -62.5 L 117.125 -62.5 L 117.125 -63.4375 C 117.125 -64.550781 116.9375 -66.164062 116.5625 -68.28125 C 116.195312 -70.40625 115.390625 -72.65625 114.140625 -75.03125 C 112.890625 -77.40625 111.015625 -79.429688 108.515625 -81.109375 C 106.023438 -82.796875 102.597656 -83.703125 98.234375 -83.828125 L 70.171875 -83.828125 L 70.171875 -21.515625 C 70.171875 -15.398438 72.132812 -10.566406 76.0625 -7.015625 C 79.988281 -3.460938 85.382812 -1.6875 92.25 -1.6875 C 108.332031 -1.6875 121.769531 -5.050781 132.5625 -11.78125 C 143.351562 -18.519531 150.992188 -28.6875 155.484375 -42.28125 L 157.171875 -42.28125 L 144.828125 0 L 9.359375 0 Z M 9.359375 -1.6875 "/></g></g></g><g fill="#000000" fill-opacity="1"><g transform="translate(831.281208, 806.624911)"><g><path d="M 9.359375 -1.6875 C 16.210938 -1.6875 21.601562 -3.460938 25.53125 -7.015625 C 29.46875 -10.566406 31.4375 -15.398438 31.4375 -21.515625 L 31.4375 -139.765625 C 31.4375 -146.003906 29.46875 -150.867188 25.53125 -154.359375 C 21.601562 -157.859375 16.210938 -159.609375 9.359375 -159.609375 L 9.359375 -161.28125 L 92.25 -161.28125 L 92.25 -159.609375 C 85.382812 -159.609375 79.988281 -157.859375 76.0625 -154.359375 C 72.132812 -150.867188 70.171875 -146.003906 70.171875 -139.765625 L 70.171875 -21.515625 C 70.171875 -15.398438 72.132812 -10.566406 76.0625 -7.015625 C 79.988281 -3.460938 85.382812 -1.6875 92.25 -1.6875 C 108.332031 -1.6875 121.769531 -5.050781 132.5625 -11.78125 C 143.351562 -18.519531 150.992188 -28.6875 155.484375 -42.28125 L 157.171875 -42.28125 L 144.828125 0 L 9.359375 0 Z M 9.359375 -1.6875 "/></g></g></g><g fill="#000000" fill-opacity="1"><g transform="translate(997.801609, 806.624911)"><g><path d="M 54.078125 -1.6875 C 60.804688 -1.6875 66.164062 -3.492188 70.15625 -7.109375 C 74.15625 -10.722656 76.15625 -15.585938 76.15625 -21.703125 L 76.15625 -73.53125 L 38.359375 -139.578125 C 30.867188 -152.429688 21.203125 -159.046875 9.359375 -159.421875 L 9.359375 -161.09375 L 85.328125 -161.09375 L 85.328125 -159.421875 C 78.460938 -159.296875 74.40625 -157.421875 73.15625 -153.796875 C 71.90625 -150.179688 72.96875 -145.441406 76.34375 -139.578125 L 113.953125 -74.46875 L 149.6875 -139.578125 C 152.925781 -145.441406 153.484375 -150.179688 151.359375 -153.796875 C 149.242188 -157.421875 144.632812 -159.296875 137.53125 -159.421875 L 137.53125 -161.09375 L 181.875 -161.09375 L 181.875 -159.421875 C 174.757812 -159.171875 168.707031 -157.171875 163.71875 -153.421875 C 158.726562 -149.679688 154.675781 -145.003906 151.5625 -139.390625 L 114.890625 -72.40625 L 114.890625 -21.703125 C 114.890625 -15.585938 116.851562 -10.722656 120.78125 -7.109375 C 124.707031 -3.492188 130.101562 -1.6875 136.96875 -1.6875 L 136.96875 0 L 54.078125 0 Z M 54.078125 -1.6875 "/></g></g></g><g fill="#000000" fill-opacity="1"><g transform="translate(1189.019455, 806.624911)"><g><path d="M 9.546875 0 L 9.546875 -53.515625 L 11.234375 -53.515625 L 11.234375 -49.203125 C 11.234375 -43.222656 12.726562 -37.332031 15.71875 -31.53125 C 18.707031 -25.726562 22.757812 -20.519531 27.875 -15.90625 C 32.988281 -11.289062 38.757812 -7.609375 45.1875 -4.859375 C 51.613281 -2.117188 58.253906 -0.75 65.109375 -0.75 C 74.210938 -0.75 81.476562 -1.929688 86.90625 -4.296875 C 92.332031 -6.671875 96.320312 -9.851562 98.875 -13.84375 C 101.4375 -17.832031 102.78125 -22.132812 102.90625 -26.75 C 103.03125 -31 101.78125 -34.898438 99.15625 -38.453125 C 96.539062 -42.003906 93.019531 -45.367188 88.59375 -48.546875 C 84.164062 -51.734375 79.300781 -54.789062 74 -57.71875 C 68.695312 -60.65625 63.457031 -63.585938 58.28125 -66.515625 C 53.101562 -69.453125 48.457031 -72.414062 44.34375 -75.40625 C 34.988281 -82.394531 27.753906 -88.753906 22.640625 -94.484375 C 17.523438 -100.222656 14.5 -105.960938 13.5625 -111.703125 C 12.625 -117.441406 13.71875 -123.867188 16.84375 -130.984375 C 19.707031 -137.460938 23.851562 -143.070312 29.28125 -147.8125 C 34.707031 -152.550781 40.910156 -156.195312 47.890625 -158.75 C 54.878906 -161.3125 62.117188 -162.59375 69.609375 -162.59375 C 72.972656 -162.59375 76.273438 -162.3125 79.515625 -161.75 C 82.765625 -161.195312 85.820312 -160.234375 88.6875 -158.859375 C 90.3125 -158.109375 92.304688 -157.234375 94.671875 -156.234375 C 97.046875 -155.234375 99.414062 -154.453125 101.78125 -153.890625 C 104.15625 -153.335938 106.179688 -153.210938 107.859375 -153.515625 C 109.546875 -153.828125 110.453125 -154.859375 110.578125 -156.609375 L 110.578125 -157.359375 L 112.265625 -157.359375 L 112.265625 -113.015625 L 110.578125 -113.015625 C 110.578125 -113.015625 110.484375 -114.101562 110.296875 -116.28125 C 110.109375 -118.46875 109.734375 -121.242188 109.171875 -124.609375 C 108.617188 -127.984375 107.6875 -131.601562 106.375 -135.46875 C 105.0625 -139.332031 103.3125 -143.007812 101.125 -146.5 C 98.945312 -150 96.175781 -152.804688 92.8125 -154.921875 C 89.5625 -156.796875 85.972656 -158.265625 82.046875 -159.328125 C 78.117188 -160.390625 73.972656 -160.921875 69.609375 -160.921875 C 62.367188 -160.921875 56.628906 -159.828125 52.390625 -157.640625 C 48.148438 -155.453125 45.15625 -152.488281 43.40625 -148.75 C 41.664062 -145.007812 40.796875 -140.769531 40.796875 -136.03125 C 40.796875 -129.664062 42.976562 -124.019531 47.34375 -119.09375 C 51.707031 -114.164062 58.378906 -108.957031 67.359375 -103.46875 C 75.085938 -98.726562 82.382812 -94.550781 89.25 -90.9375 C 96.113281 -87.320312 102.164062 -83.578125 107.40625 -79.703125 C 112.644531 -75.835938 116.789062 -71.222656 119.84375 -65.859375 C 122.894531 -60.492188 124.421875 -53.695312 124.421875 -45.46875 C 124.421875 -40.101562 123.171875 -34.394531 120.671875 -28.34375 C 118.179688 -22.289062 115.066406 -17.394531 111.328125 -13.65625 C 107.335938 -9.664062 102.410156 -6.515625 96.546875 -4.203125 C 90.679688 -1.898438 84.347656 -0.40625 77.546875 0.28125 C 70.753906 0.96875 63.957031 0.90625 57.15625 0.09375 C 50.363281 -0.71875 43.972656 -2.242188 37.984375 -4.484375 C 31.617188 -6.984375 26.628906 -8.546875 23.015625 -9.171875 C 19.398438 -9.796875 16.75 -9.765625 15.0625 -9.078125 C 13.375 -8.390625 12.3125 -7.265625 11.875 -5.703125 C 11.445312 -4.148438 11.234375 -2.3125 11.234375 -0.1875 L 11.234375 0 Z M 9.546875 0 "/></g></g></g></svg>