<svg xmlns="http://www.w3.org/2000/svg" xmlns:xlink="http://www.w3.org/1999/xlink" width="2000" zoomAndPan="magnify" viewBox="0 0 1500 1499.999933" height="2000" preserveAspectRatio="xMidYMid meet" version="1.0"><defs><filter x="0%" y="0%" width="100%" height="100%" id="76c755f95a"><feColorMatrix values="0 0 0 0 1 0 0 0 0 1 0 0 0 0 1 0 0 0 1 0" color-interpolation-filters="sRGB"/></filter><mask id="11e0e21907"><g filter="url(#76c755f95a)"><rect x="-150" width="1800" fill="#000000" y="-149.999993" height="1799.99992" fill-opacity="0.5"/></g></mask><clipPath id="edf987a59a"><path d="M 0.796875 0.585938 L 1246 0.585938 L 1246 1150.335938 L 0.796875 1150.335938 Z M 0.796875 0.585938 " clip-rule="nonzero"/></clipPath><clipPath id="7851faa7b5"><rect x="0" width="1247" y="0" height="1151"/></clipPath></defs><rect x="-150" width="1800" fill="#ffffff" y="-149.999993" height="1799.99992" fill-opacity="1"/><rect x="-150" width="1800" fill="#ffffff" y="-149.999993" height="1799.99992" fill-opacity="1"/><g mask="url(#11e0e21907)"><g transform="matrix(1, 0, 0, 1, 130, 167)"><g clip-path="url(#7851faa7b5)"><g clip-path="url(#edf987a59a)"><path fill="#fde9a4" d="M 0.75 1150.582031 C 0.75 1150.582031 1.367188 587.691406 504 446.53125 C 1006.632812 305.371094 1058.339844 191.777344 1180.476562 0.648438 C 1180.476562 0.648438 1467.996094 693.265625 831.257812 819.28125 C 242.0625 935.898438 0.75 1150.582031 0.75 1150.582031 Z M 0.75 1150.582031 " fill-opacity="1" fill-rule="nonzero"/></g></g></g></g></svg>