<svg xmlns="http://www.w3.org/2000/svg" xmlns:xlink="http://www.w3.org/1999/xlink" width="2000" zoomAndPan="magnify" viewBox="0 0 1500 1499.999933" height="2000" preserveAspectRatio="xMidYMid meet" version="1.0"><defs><g/><clipPath id="f3ca03e97a"><rect x="0" width="1320" y="0" height="351"/></clipPath></defs><rect x="-150" width="1800" fill="#ffffff" y="-149.999993" height="1799.99992" fill-opacity="1"/><rect x="-150" width="1800" fill="#ffffff" y="-149.999993" height="1799.99992" fill-opacity="1"/><g transform="matrix(1, 0, 0, 1, 90, 574)"><g clip-path="url(#f3ca03e97a)"><g fill="#000000" fill-opacity="1"><g transform="translate(0.473965, 241.624416)"><g><path d="M 11.0625 0 L 11.0625 -62.015625 L 13.015625 -62.015625 L 13.015625 -57.03125 C 13.015625 -50.09375 14.75 -43.257812 18.21875 -36.53125 C 21.6875 -29.8125 26.382812 -23.773438 32.3125 -18.421875 C 38.238281 -13.078125 44.921875 -8.816406 52.359375 -5.640625 C 59.804688 -2.460938 67.507812 -0.875 75.46875 -0.875 C 86.019531 -0.875 94.4375 -2.242188 100.71875 -4.984375 C 107.007812 -7.734375 111.632812 -11.421875 114.59375 -16.046875 C 117.5625 -20.671875 119.117188 -25.660156 119.265625 -31.015625 C 119.410156 -35.921875 117.960938 -40.429688 114.921875 -44.546875 C 111.890625 -48.671875 107.804688 -52.578125 102.671875 -56.265625 C 97.546875 -59.953125 91.910156 -63.492188 85.765625 -66.890625 C 79.617188 -70.285156 73.546875 -73.679688 67.546875 -77.078125 C 61.546875 -80.484375 56.160156 -83.921875 51.390625 -87.390625 C 40.546875 -95.484375 32.160156 -102.851562 26.234375 -109.5 C 20.304688 -116.15625 16.800781 -122.804688 15.71875 -129.453125 C 14.632812 -136.109375 15.898438 -143.554688 19.515625 -151.796875 C 22.835938 -159.304688 27.644531 -165.804688 33.9375 -171.296875 C 40.226562 -176.796875 47.421875 -181.023438 55.515625 -183.984375 C 63.609375 -186.953125 71.992188 -188.4375 80.671875 -188.4375 C 84.566406 -188.4375 88.394531 -188.109375 92.15625 -187.453125 C 95.914062 -186.804688 99.457031 -185.6875 102.78125 -184.09375 C 104.664062 -183.226562 106.976562 -182.21875 109.71875 -181.0625 C 112.46875 -179.90625 115.210938 -179 117.953125 -178.34375 C 120.703125 -177.695312 123.050781 -177.554688 125 -177.921875 C 126.957031 -178.285156 128.007812 -179.476562 128.15625 -181.5 L 128.15625 -182.359375 L 130.109375 -182.359375 L 130.109375 -130.96875 L 128.15625 -130.96875 C 128.15625 -130.96875 128.046875 -132.234375 127.828125 -134.765625 C 127.609375 -137.296875 127.171875 -140.507812 126.515625 -144.40625 C 125.867188 -148.3125 124.785156 -152.503906 123.265625 -156.984375 C 121.753906 -161.472656 119.734375 -165.738281 117.203125 -169.78125 C 114.671875 -173.832031 111.453125 -177.085938 107.546875 -179.546875 C 103.796875 -181.710938 99.640625 -183.410156 95.078125 -184.640625 C 90.523438 -185.867188 85.722656 -186.484375 80.671875 -186.484375 C 72.285156 -186.484375 65.632812 -185.21875 60.71875 -182.6875 C 55.800781 -180.15625 52.328125 -176.722656 50.296875 -172.390625 C 48.273438 -168.054688 47.265625 -163.140625 47.265625 -157.640625 C 47.265625 -150.273438 49.796875 -143.734375 54.859375 -138.015625 C 59.921875 -132.304688 67.65625 -126.273438 78.0625 -119.921875 C 87.03125 -114.421875 95.488281 -109.570312 103.4375 -105.375 C 111.382812 -101.1875 118.394531 -96.851562 124.46875 -92.375 C 130.539062 -87.894531 135.347656 -82.546875 138.890625 -76.328125 C 142.429688 -70.109375 144.203125 -62.226562 144.203125 -52.6875 C 144.203125 -46.476562 142.753906 -39.863281 139.859375 -32.84375 C 136.972656 -25.832031 133.359375 -20.160156 129.015625 -15.828125 C 124.390625 -11.203125 118.679688 -7.550781 111.890625 -4.875 C 105.097656 -2.207031 97.757812 -0.476562 89.875 0.3125 C 82 1.113281 74.117188 1.046875 66.234375 0.109375 C 58.359375 -0.828125 50.953125 -2.597656 44.015625 -5.203125 C 36.640625 -8.097656 30.859375 -9.90625 26.671875 -10.625 C 22.484375 -11.34375 19.410156 -11.304688 17.453125 -10.515625 C 15.503906 -9.722656 14.273438 -8.421875 13.765625 -6.609375 C 13.265625 -4.804688 13.015625 -2.675781 13.015625 -0.21875 L 13.015625 0 Z M 11.0625 0 "/></g></g></g><g fill="#000000" fill-opacity="1"><g transform="translate(151.175817, 241.624416)"><g><path d="M 111.453125 1.515625 C 102.347656 1.515625 93.3125 -0.0351562 84.34375 -3.140625 C 75.382812 -6.253906 67.21875 -10.628906 59.84375 -16.265625 C 52.476562 -21.898438 46.585938 -28.507812 42.171875 -36.09375 C 37.765625 -43.6875 35.5625 -51.894531 35.5625 -60.71875 L 35.5625 -161.984375 C 35.5625 -169.210938 33.390625 -174.847656 29.046875 -178.890625 C 24.710938 -182.941406 18.644531 -184.96875 10.84375 -184.96875 L 10.84375 -186.921875 L 104.296875 -186.921875 L 104.296875 -184.96875 C 96.347656 -184.96875 90.273438 -182.976562 86.078125 -179 C 81.890625 -175.03125 79.796875 -169.863281 79.796875 -163.5 L 79.796875 -77.203125 C 79.796875 -70.984375 80.117188 -64.40625 80.765625 -57.46875 C 81.421875 -50.53125 82.539062 -43.734375 84.125 -37.078125 C 85.71875 -30.429688 88.03125 -24.394531 91.0625 -18.96875 C 94.101562 -13.550781 97.972656 -9.210938 102.671875 -5.953125 C 107.367188 -2.703125 113.117188 -1.078125 119.921875 -1.078125 C 124.109375 -1.078125 128.875 -1.691406 134.21875 -2.921875 C 139.570312 -4.148438 144.992188 -6.140625 150.484375 -8.890625 C 155.984375 -11.640625 161.082031 -15.289062 165.78125 -19.84375 C 170.476562 -24.394531 174.234375 -29.882812 177.046875 -36.3125 C 179.867188 -42.75 181.28125 -50.378906 181.28125 -59.203125 L 181.28125 -163.0625 C 181.28125 -169.863281 179.109375 -175.210938 174.765625 -179.109375 C 170.429688 -183.015625 164.363281 -184.96875 156.5625 -184.96875 L 156.5625 -186.921875 L 207.734375 -186.921875 L 207.734375 -184.96875 C 200.210938 -184.96875 194.25 -183.015625 189.84375 -179.109375 C 185.4375 -175.210938 183.234375 -169.863281 183.234375 -163.0625 L 183.234375 -59.203125 C 183.234375 -45.753906 179.976562 -34.546875 173.46875 -25.578125 C 166.96875 -16.617188 158.257812 -9.863281 147.34375 -5.3125 C 136.425781 -0.757812 124.460938 1.515625 111.453125 1.515625 Z M 111.453125 1.515625 "/></g></g></g><g fill="#000000" fill-opacity="1"><g transform="translate(358.905372, 241.624416)"><g><path d="M 40.765625 -155.484375 L 37.296875 -159.15625 L 37.296875 -23.859375 C 37.441406 -18.941406 38.488281 -15 40.4375 -12.03125 C 42.394531 -9.070312 44.742188 -6.90625 47.484375 -5.53125 C 50.234375 -4.15625 52.835938 -3.210938 55.296875 -2.703125 C 57.753906 -2.203125 59.632812 -1.953125 60.9375 -1.953125 L 62.015625 -1.953125 L 62.015625 0 L 10.84375 0 L 10.84375 -1.953125 L 11.921875 -1.953125 C 13.078125 -1.953125 14.921875 -2.203125 17.453125 -2.703125 C 19.984375 -3.210938 22.585938 -4.15625 25.265625 -5.53125 C 27.941406 -6.90625 30.253906 -9.070312 32.203125 -12.03125 C 34.148438 -15 35.195312 -18.941406 35.34375 -23.859375 L 35.34375 -158.515625 C 35.195312 -167.765625 32.988281 -174.445312 28.71875 -178.5625 C 24.457031 -182.6875 18.5 -184.75 10.84375 -184.75 L 10.84375 -186.921875 L 71.78125 -186.921875 L 177.8125 -66.78125 L 177.8125 -162.84375 C 177.664062 -168.632812 176.328125 -173.046875 173.796875 -176.078125 C 171.265625 -179.109375 168.410156 -181.238281 165.234375 -182.46875 C 162.054688 -183.695312 159.238281 -184.421875 156.78125 -184.640625 C 154.320312 -184.859375 153.09375 -184.96875 153.09375 -184.96875 L 153.09375 -186.921875 L 204.484375 -186.921875 L 204.484375 -184.75 C 204.484375 -184.75 203.253906 -184.675781 200.796875 -184.53125 C 198.335938 -184.382812 195.515625 -183.695312 192.328125 -182.46875 C 189.148438 -181.238281 186.296875 -179.109375 183.765625 -176.078125 C 181.242188 -173.046875 179.910156 -168.632812 179.765625 -162.84375 L 179.765625 0 L 177.59375 0 Z M 40.765625 -155.484375 "/></g></g></g><g fill="#000000" fill-opacity="1"><g transform="translate(567.719318, 241.624416)"><g><path d="M 10.84375 -1.953125 C 18.789062 -1.953125 25.039062 -4.007812 29.59375 -8.125 C 34.15625 -12.25 36.4375 -17.851562 36.4375 -24.9375 L 36.4375 -161.984375 C 36.4375 -169.210938 34.15625 -174.847656 29.59375 -178.890625 C 25.039062 -182.941406 18.789062 -184.96875 10.84375 -184.96875 L 10.84375 -186.921875 L 158.078125 -186.921875 L 165.453125 -138.78125 L 163.71875 -137.90625 L 163.0625 -141.8125 C 162.632812 -143.976562 161.734375 -146.867188 160.359375 -150.484375 C 158.984375 -154.097656 156.847656 -157.859375 153.953125 -161.765625 C 151.066406 -165.671875 147.203125 -169.394531 142.359375 -172.9375 C 137.515625 -176.476562 131.40625 -179.367188 124.03125 -181.609375 C 116.65625 -183.847656 107.691406 -184.96875 97.140625 -184.96875 L 81.53125 -184.96875 L 81.3125 -99.09375 L 113.84375 -99.09375 C 118.90625 -99.238281 122.878906 -100.25 125.765625 -102.125 C 128.660156 -104.007812 130.828125 -106.320312 132.265625 -109.0625 C 133.710938 -111.8125 134.65625 -114.414062 135.09375 -116.875 C 135.53125 -119.332031 135.75 -121.210938 135.75 -122.515625 L 135.75 -123.59375 L 137.703125 -123.59375 L 137.703125 -72.421875 L 135.75 -72.421875 L 135.75 -73.515625 C 135.75 -74.816406 135.53125 -76.691406 135.09375 -79.140625 C 134.65625 -81.597656 133.710938 -84.203125 132.265625 -86.953125 C 130.828125 -89.703125 128.660156 -92.050781 125.765625 -94 C 122.878906 -95.945312 118.90625 -96.992188 113.84375 -97.140625 L 81.3125 -97.140625 L 81.3125 -24.9375 C 81.3125 -17.851562 83.585938 -12.25 88.140625 -8.125 C 92.703125 -4.007812 98.957031 -1.953125 106.90625 -1.953125 C 125.550781 -1.953125 141.125 -5.851562 153.625 -13.65625 C 166.132812 -21.46875 174.992188 -33.25 180.203125 -49 L 182.15625 -49 L 167.84375 0 L 10.84375 0 Z M 10.84375 -1.953125 "/></g></g></g><g fill="#000000" fill-opacity="1"><g transform="translate(754.199038, 241.624416)"><g><path d="M 10.84375 -1.953125 C 18.789062 -1.953125 25.039062 -4.007812 29.59375 -8.125 C 34.15625 -12.25 36.4375 -17.851562 36.4375 -24.9375 L 36.4375 -161.984375 C 36.4375 -169.210938 34.15625 -174.847656 29.59375 -178.890625 C 25.039062 -182.941406 18.789062 -184.96875 10.84375 -184.96875 L 10.84375 -186.921875 L 106.90625 -186.921875 L 106.90625 -184.96875 C 98.957031 -184.96875 92.703125 -182.941406 88.140625 -178.890625 C 83.585938 -174.847656 81.3125 -169.210938 81.3125 -161.984375 L 81.3125 -24.9375 C 81.3125 -17.851562 83.585938 -12.25 88.140625 -8.125 C 92.703125 -4.007812 98.957031 -1.953125 106.90625 -1.953125 C 125.550781 -1.953125 141.125 -5.851562 153.625 -13.65625 C 166.132812 -21.46875 174.992188 -33.25 180.203125 -49 L 182.15625 -49 L 167.84375 0 L 10.84375 0 Z M 10.84375 -1.953125 "/></g></g></g><g fill="#000000" fill-opacity="1"><g transform="translate(947.184139, 241.624416)"><g><path d="M 62.671875 -1.953125 C 70.472656 -1.953125 76.6875 -4.046875 81.3125 -8.234375 C 85.9375 -12.429688 88.25 -18.070312 88.25 -25.15625 L 88.25 -85.21875 L 44.453125 -161.765625 C 35.773438 -176.648438 24.570312 -184.3125 10.84375 -184.75 L 10.84375 -186.703125 L 98.875 -186.703125 L 98.875 -184.75 C 90.925781 -184.601562 86.226562 -182.429688 84.78125 -178.234375 C 83.34375 -174.046875 84.570312 -168.554688 88.46875 -161.765625 L 132.0625 -86.296875 L 173.46875 -161.765625 C 177.226562 -168.554688 177.878906 -174.046875 175.421875 -178.234375 C 172.960938 -182.429688 167.613281 -184.601562 159.375 -184.75 L 159.375 -186.703125 L 210.765625 -186.703125 L 210.765625 -184.75 C 202.523438 -184.457031 195.515625 -182.144531 189.734375 -177.8125 C 183.953125 -173.476562 179.253906 -168.054688 175.640625 -161.546875 L 133.140625 -83.921875 L 133.140625 -25.15625 C 133.140625 -18.070312 135.414062 -12.429688 139.96875 -8.234375 C 144.519531 -4.046875 150.773438 -1.953125 158.734375 -1.953125 L 158.734375 0 L 62.671875 0 Z M 62.671875 -1.953125 "/></g></g></g><g fill="#000000" fill-opacity="1"><g transform="translate(1168.791794, 241.624416)"><g><path d="M 11.0625 0 L 11.0625 -62.015625 L 13.015625 -62.015625 L 13.015625 -57.03125 C 13.015625 -50.09375 14.75 -43.257812 18.21875 -36.53125 C 21.6875 -29.8125 26.382812 -23.773438 32.3125 -18.421875 C 38.238281 -13.078125 44.921875 -8.816406 52.359375 -5.640625 C 59.804688 -2.460938 67.507812 -0.875 75.46875 -0.875 C 86.019531 -0.875 94.4375 -2.242188 100.71875 -4.984375 C 107.007812 -7.734375 111.632812 -11.421875 114.59375 -16.046875 C 117.5625 -20.671875 119.117188 -25.660156 119.265625 -31.015625 C 119.410156 -35.921875 117.960938 -40.429688 114.921875 -44.546875 C 111.890625 -48.671875 107.804688 -52.578125 102.671875 -56.265625 C 97.546875 -59.953125 91.910156 -63.492188 85.765625 -66.890625 C 79.617188 -70.285156 73.546875 -73.679688 67.546875 -77.078125 C 61.546875 -80.484375 56.160156 -83.921875 51.390625 -87.390625 C 40.546875 -95.484375 32.160156 -102.851562 26.234375 -109.5 C 20.304688 -116.15625 16.800781 -122.804688 15.71875 -129.453125 C 14.632812 -136.109375 15.898438 -143.554688 19.515625 -151.796875 C 22.835938 -159.304688 27.644531 -165.804688 33.9375 -171.296875 C 40.226562 -176.796875 47.421875 -181.023438 55.515625 -183.984375 C 63.609375 -186.953125 71.992188 -188.4375 80.671875 -188.4375 C 84.566406 -188.4375 88.394531 -188.109375 92.15625 -187.453125 C 95.914062 -186.804688 99.457031 -185.6875 102.78125 -184.09375 C 104.664062 -183.226562 106.976562 -182.21875 109.71875 -181.0625 C 112.46875 -179.90625 115.210938 -179 117.953125 -178.34375 C 120.703125 -177.695312 123.050781 -177.554688 125 -177.921875 C 126.957031 -178.285156 128.007812 -179.476562 128.15625 -181.5 L 128.15625 -182.359375 L 130.109375 -182.359375 L 130.109375 -130.96875 L 128.15625 -130.96875 C 128.15625 -130.96875 128.046875 -132.234375 127.828125 -134.765625 C 127.609375 -137.296875 127.171875 -140.507812 126.515625 -144.40625 C 125.867188 -148.3125 124.785156 -152.503906 123.265625 -156.984375 C 121.753906 -161.472656 119.734375 -165.738281 117.203125 -169.78125 C 114.671875 -173.832031 111.453125 -177.085938 107.546875 -179.546875 C 103.796875 -181.710938 99.640625 -183.410156 95.078125 -184.640625 C 90.523438 -185.867188 85.722656 -186.484375 80.671875 -186.484375 C 72.285156 -186.484375 65.632812 -185.21875 60.71875 -182.6875 C 55.800781 -180.15625 52.328125 -176.722656 50.296875 -172.390625 C 48.273438 -168.054688 47.265625 -163.140625 47.265625 -157.640625 C 47.265625 -150.273438 49.796875 -143.734375 54.859375 -138.015625 C 59.921875 -132.304688 67.65625 -126.273438 78.0625 -119.921875 C 87.03125 -114.421875 95.488281 -109.570312 103.4375 -105.375 C 111.382812 -101.1875 118.394531 -96.851562 124.46875 -92.375 C 130.539062 -87.894531 135.347656 -82.546875 138.890625 -76.328125 C 142.429688 -70.109375 144.203125 -62.226562 144.203125 -52.6875 C 144.203125 -46.476562 142.753906 -39.863281 139.859375 -32.84375 C 136.972656 -25.832031 133.359375 -20.160156 129.015625 -15.828125 C 124.390625 -11.203125 118.679688 -7.550781 111.890625 -4.875 C 105.097656 -2.207031 97.757812 -0.476562 89.875 0.3125 C 82 1.113281 74.117188 1.046875 66.234375 0.109375 C 58.359375 -0.828125 50.953125 -2.597656 44.015625 -5.203125 C 36.640625 -8.097656 30.859375 -9.90625 26.671875 -10.625 C 22.484375 -11.34375 19.410156 -11.304688 17.453125 -10.515625 C 15.503906 -9.722656 14.273438 -8.421875 13.765625 -6.609375 C 13.265625 -4.804688 13.015625 -2.675781 13.015625 -0.21875 L 13.015625 0 Z M 11.0625 0 "/></g></g></g></g></g></svg>